<svg xmlns="http://www.w3.org/2000/svg" viewBox="0 0 120 140">
  <path d="M20 20 Q60 5 100 20 V95 Q60 125 20 95Z" fill="#000000" stroke="#ffffff" stroke-width="6"/>
  <path d="M30 32 H90 V42 H30Z" fill="#ffffff"/>
  <path d="M30 52 H90 V62 H30Z" fill="#ffffff"/>
  <path d="M30 72 H90 V82 H30Z" fill="#ffffff"/>
  <path d="M30 92 H90 V102 H30Z" fill="#ffffff"/>
  <path d="M38 44 H82 V110 H38Z" fill="none" stroke="#ffffff" stroke-width="4"/>
  <path d="M44 60 H56 V104 H44Z" fill="#111111"/>
  <path d="M64 60 H76 V104 H64Z" fill="#111111"/>
  <polygon points="60,10 65,22 78,22 67,30 71,42 60,34 49,42 53,30 42,22 55,22" fill="#f0c419"/>
</svg>
