<svg xmlns="http://www.w3.org/2000/svg" viewBox="0 0 140 140">
  <circle cx="70" cy="70" r="60" fill="#0038a8"/>
  <circle cx="70" cy="70" r="46" fill="#0038a8" stroke="#ffffff" stroke-width="8"/>
  <g fill="#ffffff">
    <polygon points="70,38 74,48 85,48 76,54 80,64 70,58 60,64 64,54 55,48 66,48"/>
    <polygon points="44,70 48,78 57,78 50,83 53,92 44,87 36,92 39,83 32,78 41,78"/>
    <polygon points="96,70 100,78 109,78 102,83 105,92 96,87 88,92 91,83 84,78 93,78"/>
    <polygon points="70,100 74,108 83,108 76,113 79,122 70,116 61,122 64,113 57,108 66,108"/>
  </g>
</svg>
